<svg width="102" height="130" viewBox="0 0 102 130" fill="none" xmlns="http://www.w3.org/2000/svg">
<path d="M101.71 4.37823C87.3402 0.561305 50.8549 0 50.8549 0C50.8549 0 14.3696 0.561305 0 4.37823V8.75646C0 8.75646 1.57167 9.09327 4.60276 9.65458L6.2867 22.677C6.2867 22.677 6.39896 27.392 8.981 29.7495L10.7772 45.0173L18.1865 106.874C18.1865 106.874 18.6356 112.262 19.5337 112.936C20.4318 113.722 21.6667 114.395 21.6667 115.181C21.6667 115.967 21.6667 119.335 21.6667 119.335C21.6667 119.335 25.7081 129.214 50.8549 129.102C76.0017 129.214 80.0431 119.335 80.0431 119.335C80.0431 119.335 80.0431 115.967 80.0431 115.181C80.0431 114.395 81.278 113.722 82.1761 112.936C83.0742 112.15 83.5232 106.874 83.5232 106.874L90.9326 45.0173L92.7288 29.7495C95.3108 27.392 95.4231 22.677 95.4231 22.677L97.107 9.65458C100.138 9.09327 101.71 8.75646 101.71 8.75646V4.37823Z" fill="white"/>
<path d="M51.2239 51.8387C43.6802 51.8387 37.5142 58.0047 37.5142 65.5484C37.5142 73.0921 43.6802 79.2581 51.2239 79.2581C58.7676 79.2581 64.9336 73.0921 64.9336 65.5484C64.9336 58.0047 58.7676 51.8387 51.2239 51.8387ZM58.4053 63.3722L50.5712 71.2787C50.136 71.7138 49.628 71.859 49.1206 71.859C48.6125 71.859 48.0327 71.6415 47.6699 71.2787L43.7531 67.3619C42.9552 66.5639 42.9552 65.2585 43.7531 64.3877C44.5511 63.5897 45.8565 63.5897 46.7273 64.3877L49.1935 66.8538L55.577 60.4704C56.3749 59.6724 57.6803 59.6724 58.5511 60.4704C59.2034 61.2688 59.2032 62.5742 58.4053 63.3722Z" fill="#80B842"/>
<path d="M77.1888 44.686C58.7909 42.8947 53.4496 32.6479 53.227 32.2181C52.856 31.5013 52.1145 31 51.2239 31C50.3338 31 49.5918 31.5018 49.2208 32.2181C48.9982 32.6479 43.6569 42.8947 25.259 44.686C24.1464 44.8295 23.2559 45.6892 23.2559 46.8358V64.5344C23.2559 85.1708 49.0723 98.2118 50.185 98.7851C50.4816 98.9285 50.8526 99 51.2236 99C51.5946 99 51.8912 98.9285 52.2622 98.7851C53.3747 98.2118 79.1913 85.1708 79.1913 64.5344V46.8358C79.1913 45.7607 78.3008 44.8289 77.1882 44.686H77.1888ZM51.224 82.6628C41.1349 82.6628 32.9745 74.7805 32.9745 65.0358C32.9745 55.2911 41.1351 47.4089 51.224 47.4089C61.3129 47.4089 69.4736 55.2911 69.4736 65.0358C69.4736 74.7805 61.3129 82.6628 51.224 82.6628Z" fill="#80B842"/>
</svg>
