<svg width="103" height="130" viewBox="0 0 103 130" fill="none" xmlns="http://www.w3.org/2000/svg">
<path d="M102.412 4.37823C88.0423 0.561305 51.557 0 51.557 0C51.557 0 15.0717 0.561305 0.702148 4.37823V8.75646C0.702148 8.75646 2.27382 9.09327 5.30491 9.65458L6.98885 22.677C6.98885 22.677 7.10111 27.392 9.68314 29.7495L11.4793 45.0173L18.8887 106.874C18.8887 106.874 19.3377 112.262 20.2358 112.936C21.1339 113.722 22.3688 114.395 22.3688 115.181C22.3688 115.967 22.3688 119.335 22.3688 119.335C22.3688 119.335 26.4102 129.214 51.557 129.102C76.7038 129.214 80.7453 119.335 80.7453 119.335C80.7453 119.335 80.7453 115.967 80.7453 115.181C80.7453 114.395 81.9802 113.722 82.8783 112.936C83.7764 112.15 84.2254 106.874 84.2254 106.874L91.6347 45.0173L93.4309 29.7495C96.013 27.392 96.1252 22.677 96.1252 22.677L97.8092 9.65458C100.84 9.09327 102.412 8.75646 102.412 8.75646V4.37823Z" fill="white"/>
<path fill-rule="evenodd" clip-rule="evenodd" d="M51.2135 47.4586C41.7977 47.4586 34.1525 54.8829 34.1525 64.0266C34.1525 73.1703 41.7977 80.5946 51.2135 80.5946C60.6293 80.5946 68.2745 73.1703 68.2745 64.0266C68.2745 54.8829 60.6293 47.4586 51.2135 47.4586ZM49.2063 56.2473C48.1826 56.3391 47.2193 56.7737 46.4846 57.4851C45.6575 58.29 45.192 59.3815 45.192 60.518V61.6875C45.192 62.8239 45.6575 63.9155 46.4846 64.7204C47.3134 65.5235 48.4375 65.9757 49.6077 65.9757H52.8192C52.9254 65.9757 53.028 66.0166 53.1024 66.0905C53.1785 66.1627 53.2207 66.2624 53.2207 66.3655V67.535C53.2207 67.6381 53.1785 67.7377 53.1024 67.81C53.028 67.8839 52.9254 67.9248 52.8192 67.9248H47.1991C46.0911 67.9248 45.192 68.798 45.192 69.874C45.192 70.95 46.0911 71.8232 47.1991 71.8232H49.2063V72.7978C49.2063 73.8737 50.1055 74.7469 51.2135 74.7469C52.3215 74.7469 53.2207 73.8737 53.2207 72.7978V71.8058C54.2444 71.714 55.2076 71.2793 55.9424 70.568C56.7694 69.7631 57.235 68.6715 57.235 67.5351V66.3656C57.235 65.2292 56.7695 64.1375 55.9424 63.3327C55.1135 62.5295 53.9895 62.0774 52.8192 62.0774H49.6077C49.5016 62.0774 49.399 62.0365 49.3246 61.9625C49.2484 61.8903 49.2063 61.7907 49.2063 61.6876V60.5181C49.2063 60.4149 49.2484 60.3153 49.3246 60.2431C49.399 60.1691 49.5016 60.1282 49.6077 60.1282H55.2278C56.3358 60.1282 57.235 59.255 57.235 58.1791C57.235 57.1031 56.3358 56.2299 55.2278 56.2299H53.2207V55.2553C53.2207 54.1793 52.3215 53.3061 51.2135 53.3061C50.1055 53.3061 49.2063 54.1793 49.2063 55.2553V56.2473Z" fill="#80B842"/>
<path fill-rule="evenodd" clip-rule="evenodd" d="M40.2464 81.509C40.7944 81.1601 41.1577 80.5597 41.1577 79.8775C41.1577 78.8015 40.2585 77.9283 39.1505 77.9283H34.8915C33.7836 77.9283 32.8844 78.7998 32.8844 79.8775V84.0116C32.8844 85.0876 33.7836 85.9608 34.8915 85.9608C35.9892 85.9608 36.8825 85.1033 36.8987 84.0413C46.6796 90.6488 60.2381 89.7208 68.955 81.2558C77.1464 73.3012 78.4828 61.1972 72.9712 51.8857C72.4192 50.9542 71.1908 50.6322 70.2315 51.1682C69.27 51.7043 68.9388 52.8955 69.4909 53.8292C74.1213 61.6512 72.9954 71.8184 66.1168 78.5002C59.1015 85.3106 48.3596 86.3126 40.246 81.5097L40.2464 81.509Z" fill="#80B842"/>
<path fill-rule="evenodd" clip-rule="evenodd" d="M62.1808 46.5443C61.6329 46.8932 61.2695 47.4936 61.2695 48.1758C61.2695 49.2518 62.1687 50.125 63.2767 50.125H67.5357C68.6437 50.125 69.5429 49.2535 69.5429 48.1758V44.0416C69.5429 42.9657 68.6437 42.0925 67.5357 42.0925C66.438 42.0925 65.5447 42.95 65.5285 44.012C55.7476 37.4044 42.1891 38.3325 33.4722 46.7974C25.2809 54.7521 23.9444 66.8561 29.456 76.1676C30.008 77.0991 31.2364 77.4211 32.1957 76.885C33.1572 76.349 33.4884 75.1577 32.9363 74.224C28.306 66.4021 29.4318 56.2348 36.3105 49.5531C43.3257 42.7427 54.0676 41.7407 62.1812 46.5435L62.1808 46.5443Z" fill="#80B842"/>
<circle cx="51.5228" cy="62.7287" r="12.043" fill="#80B842"/>
<path d="M51.7017 68.3455L49.2233 63.9004C50.3714 63.5013 51.6471 62.3764 51.6471 60.2718C51.6471 58.022 50.1163 56.244 47.4192 56.244H41.3325V68.3455H44.4669V64.2814H46.0706L48.1117 68.3455H51.7017ZM46.9454 61.56H44.4669V58.9655H46.9454C47.7836 58.9655 48.4579 59.4191 48.4579 60.2537C48.4579 61.1064 47.7836 61.56 46.9454 61.56Z" fill="white"/>
<path d="M59.0848 68.5632C61.2898 68.5632 62.9482 66.9303 62.9482 63.9549C62.9482 60.9975 61.2898 59.3646 59.0848 59.3646C58.0825 59.3646 57.1713 59.7638 56.4788 60.5984V59.5824H53.6723V71.6838H56.4788V67.3113C57.2077 68.1822 58.1007 68.5632 59.0848 68.5632ZM58.1554 66.0957C57.554 66.0957 56.825 65.751 56.4788 65.2974V62.6304C56.825 62.1587 57.554 61.8321 58.1554 61.8321C59.2488 61.8321 60.0871 62.6485 60.0871 63.9549C60.0871 65.2793 59.2488 66.0957 58.1554 66.0957Z" fill="white"/>
</svg>
