<svg width="103" height="130" viewBox="0 0 103 130" fill="none" xmlns="http://www.w3.org/2000/svg">
<path d="M102.412 4.37823C88.0423 0.561305 51.557 0 51.557 0C51.557 0 15.0717 0.561305 0.702148 4.37823V8.75646C0.702148 8.75646 2.27382 9.09327 5.30491 9.65458L6.98885 22.677C6.98885 22.677 7.10111 27.392 9.68314 29.7495L11.4793 45.0173L18.8887 106.874C18.8887 106.874 19.3377 112.262 20.2358 112.936C21.1339 113.722 22.3688 114.395 22.3688 115.181C22.3688 115.967 22.3688 119.335 22.3688 119.335C22.3688 119.335 26.4102 129.214 51.557 129.102C76.7038 129.214 80.7453 119.335 80.7453 119.335C80.7453 119.335 80.7453 115.967 80.7453 115.181C80.7453 114.395 81.9802 113.722 82.8783 112.936C83.7764 112.15 84.2254 106.874 84.2254 106.874L91.6347 45.0173L93.4309 29.7495C96.013 27.392 96.1252 22.677 96.1252 22.677L97.8092 9.65458C100.84 9.09327 102.412 8.75646 102.412 8.75646V4.37823Z" fill="white"/>
<path d="M75.958 62.9448L72.0743 58.3445L73.0877 52.4605C73.1834 51.9062 72.8631 51.3635 72.3253 51.1673L66.6128 49.0832L64.4841 43.4914C64.2841 42.9653 63.7317 42.6486 63.163 42.745L57.152 43.737L52.4524 39.9354C52.0102 39.5774 51.3697 39.5774 50.9271 39.9354L46.2275 43.737L40.2164 42.745C39.6494 42.6502 39.0958 42.9649 38.8953 43.4914L36.7662 49.0832L31.0538 51.1669C30.5155 51.3631 30.1953 51.9059 30.2913 52.4601L31.3047 58.3441L27.4211 62.9444C27.0553 63.3772 27.0553 64.0042 27.4211 64.4375L31.3047 69.0378L30.2913 74.9219C30.1957 75.4761 30.516 76.0189 31.0538 76.2151L36.7662 78.2979L38.8949 83.8902C39.0949 84.4162 39.6469 84.7309 40.216 84.6365L46.2271 83.6445L50.9266 87.4461C51.1483 87.6255 51.4189 87.7155 51.6895 87.7155C51.9601 87.7155 52.2306 87.626 52.4519 87.4469L57.1515 83.6453L63.1626 84.6373C63.7283 84.7317 64.2836 84.4174 64.4836 83.891L66.6123 78.2988L72.3248 76.2159C72.863 76.0201 73.1833 75.4769 73.0873 74.9227L72.0739 69.0386L75.9575 64.4384C76.3237 64.0047 76.3238 63.3776 75.958 62.9448ZM51.6889 78.9258C43.1074 78.9258 36.1252 72.091 36.1252 63.6909C36.1252 55.2908 43.1075 48.456 51.6889 48.456C60.2703 48.456 67.2526 55.2908 67.2526 63.6909C67.2526 72.091 60.2703 78.9258 51.6889 78.9258ZM53.9065 62.3024L56.596 62.8803L54.8064 64.8111C54.5809 65.0547 54.4694 65.3805 54.5011 65.7083L54.7508 68.3124L52.1453 67.2607C51.9996 67.2002 51.8438 67.1712 51.6889 67.1712C51.534 67.1712 51.3783 67.2006 51.2321 67.2594L48.6266 68.3111L48.8763 65.7071C48.908 65.3797 48.7965 65.0539 48.571 64.8099L46.7814 62.8791L49.4709 62.3011C49.787 62.2333 50.0617 62.0428 50.2325 61.7731L51.6889 59.4711L53.1453 61.7743C53.3161 62.0441 53.5909 62.2345 53.9065 62.3024ZM51.6889 50.7998C44.4272 50.7998 38.5197 56.5826 38.5197 63.6909C38.5197 70.7992 44.4272 76.5819 51.6889 76.5819C58.9506 76.5819 64.8582 70.7992 64.8582 63.6909C64.8582 56.5826 58.9506 50.7998 51.6889 50.7998ZM59.7585 62.9574L56.9342 66.0036L57.3204 70.0267C57.3592 70.4359 57.1772 70.8348 56.8402 71.0784C56.631 71.2305 56.3809 71.3085 56.1287 71.3085C55.9742 71.3085 55.8193 71.2791 55.6719 71.2203L51.6889 69.6115L47.7058 71.2198C47.3179 71.3764 46.8745 71.3228 46.5375 71.0792C46.2005 70.8348 46.018 70.4359 46.0573 70.0275L46.4435 66.0044L43.6192 62.9582C43.3323 62.6484 43.2354 62.2127 43.3653 61.8145C43.4952 61.416 43.8321 61.1156 44.2493 61.0257L48.4636 60.1211L50.6712 56.6302C50.8892 56.2832 51.2746 56.0735 51.6888 56.0735C52.103 56.0735 52.4884 56.2832 52.7072 56.6286L54.9147 60.1195L59.1291 61.024C59.5462 61.1135 59.8832 61.4144 60.0131 61.8129C60.1421 62.2114 60.0452 62.6475 59.7584 62.9574L59.7585 62.9574Z" fill="#80B842"/>
</svg>
