<svg width="102" height="130" viewBox="0 0 102 130" fill="none" xmlns="http://www.w3.org/2000/svg">
<path d="M101.965 4.37823C87.5951 0.561305 51.1098 0 51.1098 0C51.1098 0 14.6245 0.561305 0.254883 4.37823V8.75646C0.254883 8.75646 1.82656 9.09327 4.85764 9.65458L6.54158 22.677C6.54158 22.677 6.65384 27.392 9.23588 29.7495L11.0321 45.0173L18.4414 106.874C18.4414 106.874 18.8905 112.262 19.7885 112.936C20.6866 113.722 21.9215 114.395 21.9215 115.181C21.9215 115.967 21.9215 119.335 21.9215 119.335C21.9215 119.335 25.963 129.214 51.1098 129.102C76.2566 129.214 80.298 119.335 80.298 119.335C80.298 119.335 80.298 115.967 80.298 115.181C80.298 114.395 81.5329 113.722 82.431 112.936C83.3291 112.15 83.7781 106.874 83.7781 106.874L91.1875 45.0173L92.9837 29.7495C95.5657 27.392 95.678 22.677 95.678 22.677L97.3619 9.65458C100.393 9.09327 101.965 8.75646 101.965 8.75646V4.37823Z" fill="white"/>
<path d="M41.7776 62.3306L48.6832 67.3911C49.0295 67.6431 49.4499 67.7368 49.8474 67.6827C50.2449 67.6286 50.6225 67.4263 50.8852 67.0884L61.7687 53.1072C62.0314 52.7693 62.1284 52.3599 62.0727 51.971C62.0169 51.5853 61.8085 51.2174 61.4373 50.9447C61.0761 50.6995 60.6736 50.6165 60.291 50.6676C59.8935 50.7217 59.5159 50.9225 59.2546 51.2589L50.0367 63.1014C49.6407 63.6097 48.8969 63.7101 48.3749 63.3277L43.6814 59.8892C43.3331 59.6343 42.9097 59.5402 42.5103 59.5943C42.1113 59.6469 41.7337 59.8507 41.4709 60.1871C41.2082 60.5249 41.1113 60.9358 41.1655 61.3233C41.2197 61.709 41.4297 62.0754 41.7779 62.3318L41.7776 62.3306ZM47.1906 69.1825L40.3473 64.1679C39.4771 63.5306 38.9547 62.6096 38.8149 61.6374C38.6752 60.6671 38.9184 59.6441 39.5752 58.7994C40.2319 57.9551 41.1831 57.4483 42.1846 57.3145C43.1846 57.1789 44.2408 57.4149 45.1095 58.0522L48.8572 60.7975L57.3573 49.876C58.0175 49.0316 58.9668 48.5248 59.9667 48.3892C60.9374 48.2584 61.9604 48.4785 62.816 49.0761L62.8916 49.1253C63.7603 49.7626 64.2841 50.6837 64.4239 51.6573C64.5637 52.6275 64.3204 53.6505 63.6652 54.4937L52.7309 68.5385C52.0772 69.3432 51.1512 69.8274 50.1741 69.9597C49.2019 70.0919 48.1756 69.8718 47.3199 69.2728L47.1935 69.1805L47.1906 69.1825ZM66.2499 75.7361C64.0738 77.5464 61.5384 78.9613 58.7598 79.8645L66.5982 87.47L65.4226 81.9919C65.2897 81.3706 65.7017 80.76 66.342 80.631C66.5062 80.5977 66.6704 80.5992 66.8247 80.631L72.4689 81.7718L66.248 75.7357L66.2499 75.7361ZM44.479 79.8645C41.7003 78.9627 39.1646 77.5478 36.9889 75.7361L30.7679 81.7722L36.4122 80.6315C36.5665 80.5997 36.7307 80.5982 36.8949 80.6315C37.5352 80.7604 37.9476 81.371 37.8143 81.9924L36.6402 87.4705L44.479 79.8645ZM37.4043 72.9682L37.7575 73.3027C41.3704 76.6379 46.2511 78.6823 51.6195 78.6823C57.1718 78.6823 62.199 76.4993 65.8363 72.9682C69.4736 69.4389 71.7238 64.5613 71.7238 59.1738C71.7238 53.7863 69.4739 48.9105 65.8363 45.3794C62.1989 41.8501 57.172 39.6669 51.6195 39.6669C46.0687 39.6669 41.0419 41.8498 37.4046 45.3794C33.7672 48.9087 31.5156 53.7863 31.5156 59.1738C31.5156 64.5596 33.7651 69.4371 37.4043 72.9682Z" fill="#80B842"/>
</svg>
