<svg width="102" height="130" viewBox="0 0 102 130" fill="none" xmlns="http://www.w3.org/2000/svg">
<path d="M101.71 4.37823C87.3402 0.561305 50.8549 0 50.8549 0C50.8549 0 14.3696 0.561305 0 4.37823V8.75646C0 8.75646 1.57167 9.09327 4.60276 9.65458L6.2867 22.677C6.2867 22.677 6.39896 27.392 8.981 29.7495L10.7772 45.0173L18.1865 106.874C18.1865 106.874 18.6356 112.262 19.5337 112.936C20.4318 113.722 21.6667 114.395 21.6667 115.181C21.6667 115.967 21.6667 119.335 21.6667 119.335C21.6667 119.335 25.7081 129.214 50.8549 129.102C76.0017 129.214 80.0431 119.335 80.0431 119.335C80.0431 119.335 80.0431 115.967 80.0431 115.181C80.0431 114.395 81.278 113.722 82.1761 112.936C83.0742 112.15 83.5232 106.874 83.5232 106.874L90.9326 45.0173L92.7288 29.7495C95.3108 27.392 95.4231 22.677 95.4231 22.677L97.107 9.65458C100.138 9.09327 101.71 8.75646 101.71 8.75646V4.37823Z" fill="white"/>
<path d="M39.486 54.8711C39.486 56.3798 38.2631 57.6027 36.7545 57.6027C35.2458 57.6027 34.0229 56.3797 34.0229 54.8711C34.0229 53.3625 35.2459 52.1395 36.7545 52.1395C38.2632 52.1395 39.486 53.3625 39.486 54.8711Z" fill="#80B842"/>
<path d="M46.6949 54.8711C46.6949 56.3798 45.472 57.6027 43.9634 57.6027C42.4548 57.6027 41.2318 56.3797 41.2318 54.8711C41.2318 53.3625 42.4548 52.1395 43.9634 52.1395C45.472 52.1395 46.6949 53.3625 46.6949 54.8711Z" fill="#80B842"/>
<path d="M42.9841 48.5004C42.9841 50.0088 41.7615 51.2318 40.2531 51.2318C38.7447 51.2318 37.5218 50.0088 37.5218 48.5004C37.5218 46.9921 38.7447 45.7694 40.2531 45.7694C41.7615 45.7694 42.9841 46.9921 42.9841 48.5004Z" fill="#80B842"/>
<path d="M50.3586 48.5004C50.3586 50.0088 49.1357 51.2318 47.6273 51.2318C46.1189 51.2318 44.8963 50.0088 44.8963 48.5004C44.8963 46.9921 46.1189 45.7694 47.6273 45.7694C49.1357 45.7694 50.3586 46.9921 50.3586 48.5004Z" fill="#80B842"/>
<path d="M57.3534 48.5004C57.3534 50.0088 56.1307 51.2318 54.6224 51.2318C53.114 51.2318 51.891 50.0088 51.891 48.5004C51.891 46.9921 53.114 45.7694 54.6224 45.7694C56.1307 45.7694 57.3534 46.9921 57.3534 48.5004Z" fill="#80B842"/>
<path d="M64.3146 48.5004C64.3146 50.0088 63.0916 51.2318 61.5833 51.2318C60.0749 51.2318 58.8522 50.0088 58.8522 48.5004C58.8522 46.9921 60.0749 45.7694 61.5833 45.7694C63.0916 45.7694 64.3146 46.9921 64.3146 48.5004Z" fill="#80B842"/>
<path d="M60.9449 54.8711C60.9449 56.3798 59.7219 57.6027 58.2136 57.6027C56.7049 57.6027 55.482 56.3797 55.482 54.8711C55.482 53.3625 56.705 52.1395 58.2136 52.1395C59.7219 52.1395 60.9449 53.3625 60.9449 54.8711Z" fill="#80B842"/>
<path d="M51.1262 52.1394C52.6328 52.1394 53.8569 53.3615 53.8569 54.8713C53.8569 56.3784 52.6334 57.6023 51.1262 57.6023C49.6155 57.6023 48.3946 56.3793 48.3946 54.8713C48.3946 53.362 49.6152 52.1394 51.1262 52.1394Z" fill="#80B842"/>
<path d="M65.3938 52.1394C66.9018 52.1394 68.1256 53.3615 68.1256 54.8713C68.1256 56.3784 66.9018 57.6023 65.3938 57.6023C63.883 57.6023 62.6622 56.3793 62.6622 54.8713C62.6622 53.362 63.884 52.1394 65.3938 52.1394Z" fill="#80B842"/>
<path d="M33.1997 83.1645H40.3006V71.2417H42.961L42.9554 61.6183C42.9554 59.934 41.5932 58.5694 39.9136 58.5694L33.5666 58.5691C31.8862 58.5691 30.5234 59.9337 30.5234 61.618L30.513 71.2414H33.1998L33.1997 83.1645Z" fill="#80B842"/>
<path d="M47.5885 83.1645H54.6884V71.2417H57.3489L57.3433 61.6183C57.3433 59.934 55.9807 58.5694 54.3014 58.5694L47.9554 58.5691C46.275 58.5691 44.9121 59.9337 44.9121 61.618L44.9024 71.2414H47.5891V83.1649L47.5885 83.1645Z" fill="#80B842"/>
<path d="M61.8566 83.1645H68.9574V71.2417H71.6179L71.6123 61.6183C71.6123 59.934 70.2497 58.5694 68.5704 58.5694L62.2235 58.5691C60.5427 58.5691 59.1802 59.9337 59.1802 61.618L59.1705 71.2414H61.8572V83.1649L61.8566 83.1645Z" fill="#80B842"/>
</svg>
